<svg xmlns="http://www.w3.org/2000/svg" xmlns:xlink="http://www.w3.org/1999/xlink" width="40" zoomAndPan="magnify" viewBox="0 0 30 30.000001" height="40" preserveAspectRatio="xMidYMid meet" version="1.0"><defs><g/><clipPath id="1a605cb194"><path d="M 0.484375 23 L 1.535156 23 L 1.535156 29.03125 L 0.484375 29.03125 Z M 0.484375 23 " clip-rule="nonzero"/></clipPath><clipPath id="d2c5243645"><path d="M 4.980469 2.273438 L 25.300781 2.273438 L 25.300781 22.597656 L 4.980469 22.597656 Z M 4.980469 2.273438 " clip-rule="nonzero"/></clipPath></defs><g clip-path="url(#1a605cb194)"><path fill="#cfd8dc" d="M 1.523438 30.445312 L -4.546875 30.445312 L -4.546875 29.648438 C -4.546875 29.648438 -3.707031 27.785156 -1.511719 27.785156 C 0.683594 27.785156 1.523438 29.648438 1.523438 29.648438 Z M -1.511719 26.988281 C -0.597656 26.988281 0.144531 26.273438 0.144531 25.390625 C 0.144531 24.507812 -0.597656 23.792969 -1.511719 23.792969 C -2.425781 23.792969 -3.167969 24.507812 -3.167969 25.390625 C -3.167969 26.273438 -2.425781 26.988281 -1.511719 26.988281 " fill-opacity="1" fill-rule="nonzero"/></g><g clip-path="url(#d2c5243645)"><path fill="#000000" d="M 21.261719 22.3125 L 8.738281 22.3125 C 6.660156 22.3125 4.980469 20.628906 4.980469 18.554688 L 4.980469 6.03125 C 4.980469 3.957031 6.660156 2.273438 8.738281 2.273438 L 21.261719 2.273438 C 23.335938 2.273438 25.019531 3.957031 25.019531 6.03125 L 25.019531 18.554688 C 25.019531 20.628906 23.335938 22.3125 21.261719 22.3125 Z M 21.261719 22.3125 " fill-opacity="1" fill-rule="nonzero"/></g><path fill="#ffffff" d="M 20.007812 12.292969 C 20.007812 9.570312 17.785156 7.285156 15.042969 7.285156 L 15.042969 7.28125 C 12.300781 7.28125 9.988281 9.484375 9.988281 12.207031 C 9.988281 12.292969 9.992188 17.300781 9.992188 17.300781 L 15.042969 17.296875 C 17.785156 17.296875 20.007812 15.011719 20.007812 12.292969 Z M 11.96875 15.335938 L 12.480469 13.65625 C 12.261719 13.253906 12.136719 12.785156 12.136719 12.292969 C 12.136719 10.710938 13.417969 9.429688 15 9.429688 C 16.582031 9.429688 17.863281 10.710938 17.863281 12.292969 C 17.863281 13.875 16.582031 15.15625 15 15.15625 C 14.566406 15.15625 14.152344 15.058594 13.785156 14.886719 Z M 11.96875 15.335938 " fill-opacity="1" fill-rule="nonzero"/><g fill="#000000" fill-opacity="1"><g transform="translate(7.539006, 25.98954)"><g><path d="M 2.40625 0 L 2.15625 0 L 2.15625 -0.8125 C 2.15625 -0.96875 2.128906 -1.082031 2.078125 -1.15625 C 2.023438 -1.226562 1.953125 -1.265625 1.859375 -1.265625 C 1.765625 -1.265625 1.675781 -1.226562 1.59375 -1.15625 C 1.507812 -1.082031 1.453125 -0.988281 1.421875 -0.875 L 1.421875 0 L 1.171875 0 L 1.171875 -0.8125 C 1.171875 -0.96875 1.144531 -1.082031 1.09375 -1.15625 C 1.050781 -1.226562 0.984375 -1.265625 0.890625 -1.265625 C 0.785156 -1.265625 0.691406 -1.226562 0.609375 -1.15625 C 0.535156 -1.082031 0.476562 -0.988281 0.4375 -0.875 L 0.4375 0 L 0.203125 0 L 0.203125 -1.453125 L 0.421875 -1.453125 L 0.421875 -1.140625 C 0.484375 -1.253906 0.5625 -1.335938 0.65625 -1.390625 C 0.75 -1.453125 0.851562 -1.484375 0.96875 -1.484375 C 1.09375 -1.484375 1.191406 -1.445312 1.265625 -1.375 C 1.335938 -1.3125 1.382812 -1.226562 1.40625 -1.125 C 1.46875 -1.238281 1.546875 -1.328125 1.640625 -1.390625 C 1.734375 -1.453125 1.835938 -1.484375 1.953125 -1.484375 C 2.035156 -1.484375 2.101562 -1.46875 2.15625 -1.4375 C 2.21875 -1.40625 2.265625 -1.363281 2.296875 -1.3125 C 2.335938 -1.257812 2.363281 -1.191406 2.375 -1.109375 C 2.394531 -1.035156 2.40625 -0.957031 2.40625 -0.875 Z M 2.40625 0 "/></g></g></g><g fill="#000000" fill-opacity="1"><g transform="translate(10.126496, 25.98954)"><g><path d="M 0.84375 0.03125 C 0.726562 0.03125 0.625 0.0078125 0.53125 -0.03125 C 0.445312 -0.0703125 0.367188 -0.125 0.296875 -0.1875 C 0.234375 -0.257812 0.179688 -0.34375 0.140625 -0.4375 C 0.109375 -0.53125 0.09375 -0.628906 0.09375 -0.734375 C 0.09375 -0.867188 0.125 -0.992188 0.1875 -1.109375 C 0.257812 -1.222656 0.347656 -1.3125 0.453125 -1.375 C 0.566406 -1.445312 0.695312 -1.484375 0.84375 -1.484375 C 0.988281 -1.484375 1.113281 -1.445312 1.21875 -1.375 C 1.332031 -1.3125 1.421875 -1.222656 1.484375 -1.109375 C 1.546875 -0.992188 1.578125 -0.867188 1.578125 -0.734375 C 1.578125 -0.722656 1.578125 -0.707031 1.578125 -0.6875 C 1.578125 -0.664062 1.578125 -0.648438 1.578125 -0.640625 L 0.359375 -0.640625 C 0.367188 -0.546875 0.394531 -0.460938 0.4375 -0.390625 C 0.488281 -0.316406 0.550781 -0.257812 0.625 -0.21875 C 0.695312 -0.175781 0.773438 -0.15625 0.859375 -0.15625 C 0.941406 -0.15625 1.019531 -0.175781 1.09375 -0.21875 C 1.175781 -0.269531 1.234375 -0.332031 1.265625 -0.40625 L 1.484375 -0.34375 C 1.453125 -0.269531 1.40625 -0.203125 1.34375 -0.140625 C 1.28125 -0.0859375 1.207031 -0.046875 1.125 -0.015625 C 1.039062 0.015625 0.945312 0.03125 0.84375 0.03125 Z M 0.359375 -0.8125 L 1.34375 -0.8125 C 1.34375 -0.90625 1.316406 -0.988281 1.265625 -1.0625 C 1.222656 -1.132812 1.164062 -1.191406 1.09375 -1.234375 C 1.019531 -1.273438 0.9375 -1.296875 0.84375 -1.296875 C 0.757812 -1.296875 0.679688 -1.273438 0.609375 -1.234375 C 0.535156 -1.191406 0.472656 -1.132812 0.421875 -1.0625 C 0.378906 -0.988281 0.359375 -0.90625 0.359375 -0.8125 Z M 0.359375 -0.8125 "/></g></g></g><g fill="#000000" fill-opacity="1"><g transform="translate(11.781482, 25.98954)"><g><path d="M 0.078125 -0.421875 C 0.078125 -0.515625 0.101562 -0.59375 0.15625 -0.65625 C 0.21875 -0.726562 0.289062 -0.78125 0.375 -0.8125 C 0.46875 -0.851562 0.578125 -0.875 0.703125 -0.875 C 0.773438 -0.875 0.847656 -0.867188 0.921875 -0.859375 C 0.992188 -0.847656 1.054688 -0.832031 1.109375 -0.8125 L 1.109375 -0.921875 C 1.109375 -1.035156 1.070312 -1.125 1 -1.1875 C 0.9375 -1.25 0.84375 -1.28125 0.71875 -1.28125 C 0.632812 -1.28125 0.554688 -1.265625 0.484375 -1.234375 C 0.410156 -1.210938 0.332031 -1.171875 0.25 -1.109375 L 0.171875 -1.296875 C 0.265625 -1.359375 0.359375 -1.40625 0.453125 -1.4375 C 0.546875 -1.46875 0.644531 -1.484375 0.75 -1.484375 C 0.9375 -1.484375 1.082031 -1.429688 1.1875 -1.328125 C 1.300781 -1.222656 1.359375 -1.078125 1.359375 -0.890625 L 1.359375 -0.28125 C 1.359375 -0.25 1.363281 -0.222656 1.375 -0.203125 C 1.382812 -0.191406 1.40625 -0.1875 1.4375 -0.1875 L 1.4375 0 C 1.40625 0 1.378906 0 1.359375 0 C 1.347656 0.0078125 1.335938 0.015625 1.328125 0.015625 C 1.265625 0.015625 1.21875 0 1.1875 -0.03125 C 1.164062 -0.0625 1.148438 -0.0976562 1.140625 -0.140625 L 1.140625 -0.234375 C 1.078125 -0.148438 0.992188 -0.0820312 0.890625 -0.03125 C 0.785156 0.0078125 0.6875 0.03125 0.59375 0.03125 C 0.488281 0.03125 0.398438 0.0078125 0.328125 -0.03125 C 0.253906 -0.0703125 0.191406 -0.125 0.140625 -0.1875 C 0.0976562 -0.257812 0.078125 -0.335938 0.078125 -0.421875 Z M 1.03125 -0.3125 C 1.050781 -0.34375 1.066406 -0.367188 1.078125 -0.390625 C 1.097656 -0.421875 1.109375 -0.445312 1.109375 -0.46875 L 1.109375 -0.65625 C 1.046875 -0.675781 0.984375 -0.691406 0.921875 -0.703125 C 0.859375 -0.710938 0.796875 -0.71875 0.734375 -0.71875 C 0.609375 -0.71875 0.503906 -0.691406 0.421875 -0.640625 C 0.347656 -0.597656 0.3125 -0.53125 0.3125 -0.4375 C 0.3125 -0.394531 0.320312 -0.347656 0.34375 -0.296875 C 0.375 -0.253906 0.414062 -0.21875 0.46875 -0.1875 C 0.519531 -0.164062 0.582031 -0.15625 0.65625 -0.15625 C 0.726562 -0.15625 0.796875 -0.171875 0.859375 -0.203125 C 0.929688 -0.234375 0.988281 -0.269531 1.03125 -0.3125 Z M 1.03125 -0.3125 "/></g></g></g><g fill="#000000" fill-opacity="1"><g transform="translate(13.332856, 25.98954)"><g><path d="M 0.203125 -2.046875 L 0.453125 -2.046875 L 0.453125 -0.375 C 0.453125 -0.289062 0.460938 -0.238281 0.484375 -0.21875 C 0.503906 -0.207031 0.53125 -0.203125 0.5625 -0.203125 C 0.601562 -0.203125 0.640625 -0.203125 0.671875 -0.203125 C 0.710938 -0.210938 0.742188 -0.222656 0.765625 -0.234375 L 0.8125 -0.046875 C 0.769531 -0.0234375 0.71875 -0.0078125 0.65625 0 C 0.601562 0.0078125 0.554688 0.015625 0.515625 0.015625 C 0.421875 0.015625 0.34375 -0.0078125 0.28125 -0.0625 C 0.226562 -0.113281 0.203125 -0.1875 0.203125 -0.28125 Z M 0.203125 -2.046875 "/></g></g></g><g fill="#000000" fill-opacity="1"><g transform="translate(14.133745, 25.98954)"><g><path d="M 0.84375 0.03125 C 0.726562 0.03125 0.625 0.0078125 0.53125 -0.03125 C 0.445312 -0.0703125 0.367188 -0.125 0.296875 -0.1875 C 0.234375 -0.257812 0.179688 -0.34375 0.140625 -0.4375 C 0.109375 -0.53125 0.09375 -0.628906 0.09375 -0.734375 C 0.09375 -0.867188 0.125 -0.992188 0.1875 -1.109375 C 0.257812 -1.222656 0.347656 -1.3125 0.453125 -1.375 C 0.566406 -1.445312 0.695312 -1.484375 0.84375 -1.484375 C 0.988281 -1.484375 1.113281 -1.445312 1.21875 -1.375 C 1.332031 -1.3125 1.421875 -1.222656 1.484375 -1.109375 C 1.546875 -0.992188 1.578125 -0.867188 1.578125 -0.734375 C 1.578125 -0.722656 1.578125 -0.707031 1.578125 -0.6875 C 1.578125 -0.664062 1.578125 -0.648438 1.578125 -0.640625 L 0.359375 -0.640625 C 0.367188 -0.546875 0.394531 -0.460938 0.4375 -0.390625 C 0.488281 -0.316406 0.550781 -0.257812 0.625 -0.21875 C 0.695312 -0.175781 0.773438 -0.15625 0.859375 -0.15625 C 0.941406 -0.15625 1.019531 -0.175781 1.09375 -0.21875 C 1.175781 -0.269531 1.234375 -0.332031 1.265625 -0.40625 L 1.484375 -0.34375 C 1.453125 -0.269531 1.40625 -0.203125 1.34375 -0.140625 C 1.28125 -0.0859375 1.207031 -0.046875 1.125 -0.015625 C 1.039062 0.015625 0.945312 0.03125 0.84375 0.03125 Z M 0.359375 -0.8125 L 1.34375 -0.8125 C 1.34375 -0.90625 1.316406 -0.988281 1.265625 -1.0625 C 1.222656 -1.132812 1.164062 -1.191406 1.09375 -1.234375 C 1.019531 -1.273438 0.9375 -1.296875 0.84375 -1.296875 C 0.757812 -1.296875 0.679688 -1.273438 0.609375 -1.234375 C 0.535156 -1.191406 0.472656 -1.132812 0.421875 -1.0625 C 0.378906 -0.988281 0.359375 -0.90625 0.359375 -0.8125 Z M 0.359375 -0.8125 "/></g></g></g><g fill="#000000" fill-opacity="1"><g transform="translate(15.788731, 25.98954)"><g><path d="M 0.109375 -0.734375 C 0.109375 -0.867188 0.132812 -0.992188 0.1875 -1.109375 C 0.25 -1.222656 0.328125 -1.3125 0.421875 -1.375 C 0.523438 -1.445312 0.640625 -1.484375 0.765625 -1.484375 C 0.878906 -1.484375 0.984375 -1.453125 1.078125 -1.390625 C 1.171875 -1.328125 1.242188 -1.253906 1.296875 -1.171875 L 1.296875 -2.046875 L 1.546875 -2.046875 L 1.546875 -0.28125 C 1.546875 -0.25 1.550781 -0.222656 1.5625 -0.203125 C 1.570312 -0.191406 1.59375 -0.1875 1.625 -0.1875 L 1.625 0 C 1.582031 0.0078125 1.546875 0.015625 1.515625 0.015625 C 1.460938 0.015625 1.414062 0 1.375 -0.03125 C 1.34375 -0.0703125 1.328125 -0.113281 1.328125 -0.15625 L 1.328125 -0.28125 C 1.273438 -0.1875 1.195312 -0.109375 1.09375 -0.046875 C 1 0.00390625 0.898438 0.03125 0.796875 0.03125 C 0.703125 0.03125 0.609375 0.0078125 0.515625 -0.03125 C 0.429688 -0.0703125 0.359375 -0.128906 0.296875 -0.203125 C 0.234375 -0.273438 0.1875 -0.351562 0.15625 -0.4375 C 0.125 -0.53125 0.109375 -0.628906 0.109375 -0.734375 Z M 1.296875 -0.515625 L 1.296875 -0.9375 C 1.273438 -1 1.238281 -1.054688 1.1875 -1.109375 C 1.132812 -1.160156 1.078125 -1.195312 1.015625 -1.21875 C 0.953125 -1.25 0.894531 -1.265625 0.84375 -1.265625 C 0.769531 -1.265625 0.703125 -1.25 0.640625 -1.21875 C 0.578125 -1.195312 0.523438 -1.160156 0.484375 -1.109375 C 0.441406 -1.054688 0.410156 -0.992188 0.390625 -0.921875 C 0.367188 -0.859375 0.359375 -0.789062 0.359375 -0.71875 C 0.359375 -0.644531 0.367188 -0.578125 0.390625 -0.515625 C 0.421875 -0.453125 0.457031 -0.394531 0.5 -0.34375 C 0.550781 -0.289062 0.601562 -0.25 0.65625 -0.21875 C 0.71875 -0.195312 0.785156 -0.1875 0.859375 -0.1875 C 0.898438 -0.1875 0.941406 -0.191406 0.984375 -0.203125 C 1.035156 -0.222656 1.082031 -0.25 1.125 -0.28125 C 1.175781 -0.3125 1.210938 -0.34375 1.234375 -0.375 C 1.265625 -0.414062 1.285156 -0.460938 1.296875 -0.515625 Z M 1.296875 -0.515625 "/></g></g></g><g fill="#000000" fill-opacity="1"><g transform="translate(17.550521, 25.98954)"><g><path d="M 0.171875 0 L 0.171875 -1.984375 L 0.9375 -1.984375 C 1.15625 -1.984375 1.335938 -1.9375 1.484375 -1.84375 C 1.628906 -1.757812 1.738281 -1.640625 1.8125 -1.484375 C 1.894531 -1.335938 1.9375 -1.175781 1.9375 -1 C 1.9375 -0.789062 1.894531 -0.613281 1.8125 -0.46875 C 1.726562 -0.320312 1.609375 -0.207031 1.453125 -0.125 C 1.304688 -0.0390625 1.132812 0 0.9375 0 Z M 1.375 -1 C 1.375 -1.101562 1.359375 -1.191406 1.328125 -1.265625 C 1.296875 -1.335938 1.242188 -1.394531 1.171875 -1.4375 C 1.109375 -1.488281 1.03125 -1.515625 0.9375 -1.515625 L 0.71875 -1.515625 L 0.71875 -0.46875 L 0.9375 -0.46875 C 1.03125 -0.46875 1.109375 -0.488281 1.171875 -0.53125 C 1.242188 -0.582031 1.296875 -0.644531 1.328125 -0.71875 C 1.359375 -0.800781 1.375 -0.894531 1.375 -1 Z M 1.375 -1 "/></g></g></g><g fill="#000000" fill-opacity="1"><g transform="translate(19.555546, 25.98954)"><g><path d="M 0.859375 0.03125 C 0.722656 0.03125 0.601562 0.0078125 0.5 -0.03125 C 0.40625 -0.0703125 0.320312 -0.128906 0.25 -0.203125 C 0.1875 -0.273438 0.132812 -0.351562 0.09375 -0.4375 C 0.0625 -0.53125 0.046875 -0.628906 0.046875 -0.734375 C 0.046875 -0.835938 0.0625 -0.929688 0.09375 -1.015625 C 0.132812 -1.109375 0.1875 -1.191406 0.25 -1.265625 C 0.320312 -1.335938 0.40625 -1.394531 0.5 -1.4375 C 0.601562 -1.476562 0.722656 -1.5 0.859375 -1.5 C 0.992188 -1.5 1.109375 -1.476562 1.203125 -1.4375 C 1.304688 -1.394531 1.390625 -1.335938 1.453125 -1.265625 C 1.523438 -1.191406 1.578125 -1.109375 1.609375 -1.015625 C 1.648438 -0.929688 1.671875 -0.835938 1.671875 -0.734375 C 1.671875 -0.628906 1.648438 -0.53125 1.609375 -0.4375 C 1.578125 -0.351562 1.523438 -0.273438 1.453125 -0.203125 C 1.390625 -0.128906 1.304688 -0.0703125 1.203125 -0.03125 C 1.109375 0.0078125 0.992188 0.03125 0.859375 0.03125 Z M 0.59375 -0.734375 C 0.59375 -0.671875 0.601562 -0.613281 0.625 -0.5625 C 0.65625 -0.519531 0.6875 -0.484375 0.71875 -0.453125 C 0.757812 -0.429688 0.804688 -0.421875 0.859375 -0.421875 C 0.910156 -0.421875 0.953125 -0.429688 0.984375 -0.453125 C 1.023438 -0.484375 1.054688 -0.519531 1.078125 -0.5625 C 1.109375 -0.613281 1.125 -0.671875 1.125 -0.734375 C 1.125 -0.796875 1.109375 -0.847656 1.078125 -0.890625 C 1.054688 -0.941406 1.023438 -0.976562 0.984375 -1 C 0.953125 -1.03125 0.910156 -1.046875 0.859375 -1.046875 C 0.804688 -1.046875 0.757812 -1.03125 0.71875 -1 C 0.6875 -0.976562 0.65625 -0.941406 0.625 -0.890625 C 0.601562 -0.847656 0.59375 -0.796875 0.59375 -0.734375 Z M 0.59375 -0.734375 "/></g></g></g><g fill="#000000" fill-opacity="1"><g transform="translate(21.274939, 25.98954)"><g><path d="M 1.171875 -0.078125 C 1.117188 -0.0546875 1.0625 -0.0351562 1 -0.015625 C 0.945312 -0.00390625 0.894531 0.00390625 0.84375 0.015625 C 0.789062 0.0234375 0.734375 0.03125 0.671875 0.03125 C 0.597656 0.03125 0.523438 0.0195312 0.453125 0 C 0.390625 -0.03125 0.335938 -0.078125 0.296875 -0.140625 C 0.253906 -0.203125 0.234375 -0.285156 0.234375 -0.390625 L 0.234375 -1.078125 L 0.046875 -1.078125 L 0.046875 -1.46875 L 0.234375 -1.46875 L 0.234375 -1.9375 L 0.765625 -1.9375 L 0.765625 -1.46875 L 1.046875 -1.46875 L 1.046875 -1.078125 L 0.765625 -1.078125 L 0.765625 -0.578125 C 0.765625 -0.535156 0.773438 -0.503906 0.796875 -0.484375 C 0.816406 -0.460938 0.84375 -0.453125 0.875 -0.453125 C 0.90625 -0.453125 0.9375 -0.457031 0.96875 -0.46875 C 1 -0.476562 1.035156 -0.488281 1.078125 -0.5 Z M 1.171875 -0.078125 "/></g></g></g></svg>