<svg xmlns="http://www.w3.org/2000/svg" xmlns:xlink="http://www.w3.org/1999/xlink" width="40" zoomAndPan="magnify" viewBox="0 0 30 30.000001" height="40" preserveAspectRatio="xMidYMid meet" version="1.0"><defs><clipPath id="85b3862a48"><path d="M 4.003906 5.21875 L 25.777344 5.21875 L 25.777344 24.089844 L 4.003906 24.089844 Z M 4.003906 5.21875 " clip-rule="nonzero"/></clipPath><clipPath id="032ab0e2f1"><path d="M 9.222656 7.25 L 20.835938 7.25 L 20.835938 18.136719 L 9.222656 18.136719 Z M 9.222656 7.25 " clip-rule="nonzero"/></clipPath></defs><g clip-path="url(#85b3862a48)"><path fill="#000000" d="M 22.890625 5.277344 L 6.851562 5.277344 C 5.277344 5.277344 4.003906 6.585938 4.003906 8.238281 L 4.003906 17.726562 C 4.003906 19.339844 5.277344 20.648438 6.851562 20.648438 L 6.964844 20.648438 C 7.5625 20.648438 8.085938 20.957031 8.425781 21.453125 L 9.625 23.375 C 9.886719 23.761719 10.296875 24.03125 10.785156 24.03125 C 11.273438 24.03125 11.683594 23.800781 11.949219 23.375 L 12.847656 21.917969 C 13.335938 21.109375 14.195312 20.648438 15.09375 20.648438 L 22.929688 20.648438 C 24.503906 20.648438 25.777344 19.339844 25.777344 17.726562 L 25.777344 8.238281 C 25.738281 6.585938 24.464844 5.277344 22.890625 5.277344 Z M 22.890625 5.277344 " fill-opacity="1" fill-rule="nonzero"/></g><g clip-path="url(#032ab0e2f1)"><path fill="#ffffff" d="M 9.230469 12.425781 C 9.230469 12.183594 9.425781 11.984375 9.671875 11.984375 L 20.316406 11.984375 C 20.5625 11.984375 20.761719 12.183594 20.761719 12.425781 C 20.761719 12.671875 20.5625 12.871094 20.316406 12.871094 L 9.671875 12.871094 C 9.425781 12.871094 9.230469 12.671875 9.230469 12.425781 Z M 9.527344 11.390625 L 20.464844 11.390625 C 20.628906 11.390625 20.761719 11.25 20.746094 11.085938 C 20.511719 9.078125 18.027344 7.25 14.996094 7.25 C 11.964844 7.25 9.480469 9.078125 9.246094 11.085938 C 9.226562 11.25 9.363281 11.390625 9.527344 11.390625 Z M 19.914062 13.460938 L 10.070312 13.460938 C 9.738281 13.460938 9.46875 13.765625 9.546875 14.09375 C 9.546875 14.097656 9.546875 14.097656 9.546875 14.101562 C 9.660156 14.566406 10.050781 14.914062 10.480469 14.996094 C 10.910156 15.074219 11.359375 14.90625 11.695312 14.597656 C 11.878906 14.429688 12.070312 14.207031 12.304688 14.242188 C 12.40625 14.257812 12.496094 14.316406 12.578125 14.382812 C 12.839844 14.589844 13.078125 14.839844 13.355469 15.019531 C 13.636719 15.199219 13.980469 15.300781 14.285156 15.175781 C 14.671875 15.011719 14.910156 14.515625 15.320312 14.453125 C 16.019531 14.347656 16.414062 15.542969 17.117188 15.535156 C 17.765625 15.53125 18.175781 14.507812 18.8125 14.636719 C 19.023438 14.679688 19.195312 14.851562 19.402344 14.933594 C 19.667969 15.035156 19.984375 14.96875 20.195312 14.765625 C 20.410156 14.558594 20.503906 14.222656 20.441406 13.917969 C 20.4375 13.886719 20.425781 13.855469 20.417969 13.824219 C 20.347656 13.601562 20.136719 13.460938 19.914062 13.460938 Z M 11.296875 18.195312 L 18.691406 18.195312 C 19.835938 18.195312 20.761719 17.265625 20.761719 16.125 L 9.230469 16.125 C 9.230469 17.265625 10.15625 18.195312 11.296875 18.195312 Z M 11.296875 18.195312 " fill-opacity="1" fill-rule="nonzero"/></g></svg>