<svg xmlns="http://www.w3.org/2000/svg" xmlns:xlink="http://www.w3.org/1999/xlink" width="500" zoomAndPan="magnify" viewBox="0 0 375 374.999991" height="500" preserveAspectRatio="xMidYMid meet" version="1.0"><defs><g/><clipPath id="5659fb9fc8"><path d="M 0 308 L 13.574219 308 L 13.574219 375 L 0 375 Z M 0 308 " clip-rule="nonzero"/></clipPath><clipPath id="638097d7d7"><path d="M 97.847656 60.273438 L 277.097656 60.273438 L 277.097656 239.523438 L 97.847656 239.523438 Z M 97.847656 60.273438 " clip-rule="nonzero"/></clipPath><clipPath id="48fa1c8ce1"><path d="M 171.804688 135.058594 L 203.304688 135.058594 L 203.304688 165 L 171.804688 165 Z M 171.804688 135.058594 " clip-rule="nonzero"/></clipPath></defs><g clip-path="url(#5659fb9fc8)"><path fill="#cfd8dc" d="M 13.519531 397.390625 L -64.992188 397.390625 L -64.992188 386.664062 C -64.992188 386.664062 -54.128906 361.640625 -25.738281 361.640625 C 2.652344 361.640625 13.519531 386.664062 13.519531 386.664062 Z M -25.738281 350.914062 C -13.910156 350.914062 -4.324219 341.3125 -4.324219 329.464844 C -4.324219 317.617188 -13.910156 308.015625 -25.738281 308.015625 C -37.5625 308.015625 -47.148438 317.617188 -47.148438 329.464844 C -47.148438 341.3125 -37.5625 350.914062 -25.738281 350.914062 " fill-opacity="1" fill-rule="nonzero"/></g><g clip-path="url(#638097d7d7)"><path fill="#000000" d="M 243.523438 239.570312 L 131.464844 239.570312 C 112.894531 239.570312 97.847656 224.523438 97.847656 205.953125 L 97.847656 93.894531 C 97.847656 75.324219 112.894531 60.273438 131.464844 60.273438 L 243.523438 60.273438 C 262.09375 60.273438 277.144531 75.324219 277.144531 93.894531 L 277.144531 205.953125 C 277.144531 224.523438 262.09375 239.570312 243.523438 239.570312 Z M 243.523438 239.570312 " fill-opacity="1" fill-rule="nonzero"/></g><path fill="#ffffff" d="M 232.320312 149.90625 C 232.320312 125.574219 212.429688 105.105469 187.871094 105.105469 L 187.871094 105.097656 C 163.339844 105.097656 142.671875 124.8125 142.671875 149.144531 C 142.671875 149.921875 142.6875 194.746094 142.6875 194.746094 L 187.871094 194.707031 C 212.433594 194.707031 232.320312 174.242188 232.320312 149.90625 Z M 160.375 177.136719 L 164.960938 162.128906 C 163 158.507812 161.878906 154.34375 161.878906 149.921875 C 161.878906 135.777344 173.347656 124.3125 187.496094 124.3125 C 201.644531 124.3125 213.113281 135.777344 213.113281 149.921875 C 213.113281 164.070312 201.648438 175.535156 187.5 175.535156 C 183.625 175.535156 179.914062 174.671875 176.613281 173.113281 Z M 160.375 177.136719 " fill-opacity="1" fill-rule="nonzero"/><g clip-path="url(#48fa1c8ce1)"><path fill="#fefffe" d="M 171.824219 149.125 C 171.824219 148.460938 172.363281 147.921875 173.027344 147.921875 L 201.960938 147.921875 C 202.628906 147.921875 203.167969 148.460938 203.167969 149.125 C 203.167969 149.789062 202.628906 150.328125 201.960938 150.328125 L 173.027344 150.328125 C 172.363281 150.328125 171.824219 149.789062 171.824219 149.125 Z M 172.640625 146.3125 L 202.359375 146.3125 C 202.808594 146.3125 203.171875 145.921875 203.121094 145.476562 C 202.488281 140.023438 195.738281 135.058594 187.5 135.058594 C 179.261719 135.058594 172.507812 140.023438 171.875 145.476562 C 171.820312 145.921875 172.1875 146.3125 172.640625 146.3125 Z M 200.859375 151.933594 L 174.113281 151.933594 C 173.203125 151.933594 172.476562 152.769531 172.683594 153.660156 C 172.683594 153.664062 172.683594 153.671875 172.691406 153.675781 C 172.992188 154.9375 174.058594 155.882812 175.222656 156.105469 C 176.390625 156.316406 177.617188 155.859375 178.527344 155.023438 C 179.023438 154.566406 179.550781 153.960938 180.1875 154.054688 C 180.464844 154.097656 180.703125 154.261719 180.929688 154.441406 C 181.644531 155.007812 182.28125 155.683594 183.042969 156.171875 C 183.800781 156.65625 184.742188 156.929688 185.5625 156.59375 C 186.613281 156.152344 187.265625 154.804688 188.382812 154.636719 C 190.28125 154.34375 191.347656 157.597656 193.265625 157.578125 C 195.023438 157.558594 196.136719 154.78125 197.867188 155.132812 C 198.445312 155.25 198.914062 155.714844 199.472656 155.933594 C 200.195312 156.214844 201.054688 156.035156 201.628906 155.476562 C 202.207031 154.917969 202.46875 154.003906 202.300781 153.183594 C 202.28125 153.09375 202.257812 153.007812 202.230469 152.917969 C 202.042969 152.316406 201.472656 151.933594 200.859375 151.933594 Z M 177.449219 164.800781 L 197.542969 164.800781 C 200.652344 164.800781 203.167969 162.277344 203.167969 159.175781 L 171.824219 159.175781 C 171.824219 162.277344 174.347656 164.800781 177.449219 164.800781 Z M 177.449219 164.800781 " fill-opacity="1" fill-rule="nonzero"/></g><g fill="#000000" fill-opacity="1"><g transform="translate(120.744518, 272.469919)"><g><path d="M 21.5 0 L 19.296875 0 L 19.296875 -7.3125 C 19.296875 -8.6875 19.070312 -9.695312 18.625 -10.34375 C 18.1875 -11 17.535156 -11.328125 16.671875 -11.328125 C 15.785156 -11.328125 14.984375 -11.003906 14.265625 -10.359375 C 13.546875 -9.722656 13.035156 -8.894531 12.734375 -7.875 L 12.734375 0 L 10.53125 0 L 10.53125 -7.3125 C 10.53125 -8.707031 10.3125 -9.722656 9.875 -10.359375 C 9.4375 -11.003906 8.785156 -11.328125 7.921875 -11.328125 C 7.046875 -11.328125 6.242188 -11.015625 5.515625 -10.390625 C 4.796875 -9.765625 4.285156 -8.929688 3.984375 -7.890625 L 3.984375 0 L 1.78125 0 L 1.78125 -13.078125 L 3.78125 -13.078125 L 3.78125 -10.28125 C 4.320312 -11.25 5.015625 -11.992188 5.859375 -12.515625 C 6.710938 -13.046875 7.675781 -13.3125 8.75 -13.3125 C 9.832031 -13.3125 10.695312 -13.015625 11.34375 -12.421875 C 12 -11.828125 12.40625 -11.0625 12.5625 -10.125 C 13.144531 -11.15625 13.851562 -11.941406 14.6875 -12.484375 C 15.519531 -13.035156 16.472656 -13.3125 17.546875 -13.3125 C 18.296875 -13.3125 18.925781 -13.171875 19.4375 -12.890625 C 19.945312 -12.617188 20.351562 -12.234375 20.65625 -11.734375 C 20.957031 -11.242188 21.171875 -10.664062 21.296875 -10 C 21.429688 -9.332031 21.5 -8.601562 21.5 -7.8125 Z M 21.5 0 "/></g></g></g><g fill="#000000" fill-opacity="1"><g transform="translate(143.895472, 272.469919)"><g><path d="M 7.5625 0.25 C 6.582031 0.25 5.6875 0.0703125 4.875 -0.28125 C 4.0625 -0.644531 3.359375 -1.140625 2.765625 -1.765625 C 2.171875 -2.390625 1.710938 -3.109375 1.390625 -3.921875 C 1.066406 -4.742188 0.90625 -5.617188 0.90625 -6.546875 C 0.90625 -7.773438 1.1875 -8.898438 1.75 -9.921875 C 2.320312 -10.941406 3.113281 -11.757812 4.125 -12.375 C 5.132812 -13 6.289062 -13.3125 7.59375 -13.3125 C 8.914062 -13.3125 10.0625 -12.992188 11.03125 -12.359375 C 12.007812 -11.734375 12.769531 -10.914062 13.3125 -9.90625 C 13.863281 -8.894531 14.140625 -7.804688 14.140625 -6.640625 C 14.140625 -6.472656 14.132812 -6.3125 14.125 -6.15625 C 14.113281 -6 14.097656 -5.878906 14.078125 -5.796875 L 3.234375 -5.796875 C 3.296875 -4.941406 3.53125 -4.179688 3.9375 -3.515625 C 4.351562 -2.859375 4.882812 -2.34375 5.53125 -1.96875 C 6.1875 -1.59375 6.890625 -1.40625 7.640625 -1.40625 C 8.441406 -1.40625 9.195312 -1.601562 9.90625 -2 C 10.625 -2.40625 11.113281 -2.929688 11.375 -3.578125 L 13.28125 -3.0625 C 13 -2.425781 12.578125 -1.851562 12.015625 -1.34375 C 11.453125 -0.84375 10.789062 -0.453125 10.03125 -0.171875 C 9.269531 0.109375 8.445312 0.25 7.5625 0.25 Z M 3.15625 -7.3125 L 12.078125 -7.3125 C 12.015625 -8.164062 11.773438 -8.914062 11.359375 -9.5625 C 10.941406 -10.21875 10.40625 -10.726562 9.75 -11.09375 C 9.09375 -11.46875 8.375 -11.65625 7.59375 -11.65625 C 6.820312 -11.65625 6.109375 -11.46875 5.453125 -11.09375 C 4.804688 -10.726562 4.28125 -10.21875 3.875 -9.5625 C 3.46875 -8.914062 3.226562 -8.164062 3.15625 -7.3125 Z M 3.15625 -7.3125 "/></g></g></g><g fill="#000000" fill-opacity="1"><g transform="translate(158.703064, 272.469919)"><g><path d="M 0.75 -3.78125 C 0.75 -4.613281 0.988281 -5.332031 1.46875 -5.9375 C 1.945312 -6.550781 2.601562 -7.023438 3.4375 -7.359375 C 4.269531 -7.703125 5.238281 -7.875 6.34375 -7.875 C 6.925781 -7.875 7.539062 -7.828125 8.1875 -7.734375 C 8.84375 -7.640625 9.421875 -7.5 9.921875 -7.3125 L 9.921875 -8.265625 C 9.921875 -9.273438 9.617188 -10.066406 9.015625 -10.640625 C 8.421875 -11.210938 7.570312 -11.5 6.46875 -11.5 C 5.75 -11.5 5.054688 -11.367188 4.390625 -11.109375 C 3.734375 -10.859375 3.039062 -10.488281 2.3125 -10 L 1.5 -11.546875 C 2.351562 -12.140625 3.207031 -12.582031 4.0625 -12.875 C 4.914062 -13.164062 5.800781 -13.3125 6.71875 -13.3125 C 8.382812 -13.3125 9.703125 -12.847656 10.671875 -11.921875 C 11.640625 -10.992188 12.125 -9.703125 12.125 -8.046875 L 12.125 -2.5 C 12.125 -2.238281 12.175781 -2.046875 12.28125 -1.921875 C 12.394531 -1.796875 12.578125 -1.722656 12.828125 -1.703125 L 12.828125 0 C 12.609375 0.03125 12.421875 0.0507812 12.265625 0.0625 C 12.109375 0.0820312 11.976562 0.09375 11.875 0.09375 C 11.363281 0.09375 10.976562 -0.046875 10.71875 -0.328125 C 10.457031 -0.609375 10.3125 -0.910156 10.28125 -1.234375 L 10.21875 -2.0625 C 9.65625 -1.320312 8.910156 -0.75 7.984375 -0.34375 C 7.066406 0.0507812 6.160156 0.25 5.265625 0.25 C 4.390625 0.25 3.609375 0.0703125 2.921875 -0.28125 C 2.242188 -0.644531 1.710938 -1.128906 1.328125 -1.734375 C 0.941406 -2.347656 0.75 -3.03125 0.75 -3.78125 Z M 9.265625 -2.859375 C 9.472656 -3.085938 9.632812 -3.320312 9.75 -3.5625 C 9.863281 -3.8125 9.921875 -4.019531 9.921875 -4.1875 L 9.921875 -5.8125 C 9.398438 -6.007812 8.851562 -6.160156 8.28125 -6.265625 C 7.71875 -6.378906 7.160156 -6.4375 6.609375 -6.4375 C 5.492188 -6.4375 4.585938 -6.210938 3.890625 -5.765625 C 3.203125 -5.328125 2.859375 -4.722656 2.859375 -3.953125 C 2.859375 -3.535156 2.96875 -3.128906 3.1875 -2.734375 C 3.414062 -2.347656 3.75 -2.03125 4.1875 -1.78125 C 4.632812 -1.53125 5.1875 -1.40625 5.84375 -1.40625 C 6.519531 -1.40625 7.164062 -1.539062 7.78125 -1.8125 C 8.40625 -2.09375 8.898438 -2.441406 9.265625 -2.859375 Z M 9.265625 -2.859375 "/></g></g></g><g fill="#000000" fill-opacity="1"><g transform="translate(172.583616, 272.469919)"><g><path d="M 1.828125 -18.296875 L 4.03125 -18.296875 L 4.03125 -3.390625 C 4.03125 -2.671875 4.128906 -2.222656 4.328125 -2.046875 C 4.535156 -1.878906 4.78125 -1.796875 5.0625 -1.796875 C 5.414062 -1.796875 5.75 -1.832031 6.0625 -1.90625 C 6.382812 -1.988281 6.648438 -2.070312 6.859375 -2.15625 L 7.21875 -0.34375 C 6.851562 -0.195312 6.414062 -0.078125 5.90625 0.015625 C 5.40625 0.117188 4.96875 0.171875 4.59375 0.171875 C 3.738281 0.171875 3.0625 -0.0664062 2.5625 -0.546875 C 2.070312 -1.035156 1.828125 -1.710938 1.828125 -2.578125 Z M 1.828125 -18.296875 "/></g></g></g><g fill="#000000" fill-opacity="1"><g transform="translate(179.749384, 272.469919)"><g><path d="M 7.5625 0.25 C 6.582031 0.25 5.6875 0.0703125 4.875 -0.28125 C 4.0625 -0.644531 3.359375 -1.140625 2.765625 -1.765625 C 2.171875 -2.390625 1.710938 -3.109375 1.390625 -3.921875 C 1.066406 -4.742188 0.90625 -5.617188 0.90625 -6.546875 C 0.90625 -7.773438 1.1875 -8.898438 1.75 -9.921875 C 2.320312 -10.941406 3.113281 -11.757812 4.125 -12.375 C 5.132812 -13 6.289062 -13.3125 7.59375 -13.3125 C 8.914062 -13.3125 10.0625 -12.992188 11.03125 -12.359375 C 12.007812 -11.734375 12.769531 -10.914062 13.3125 -9.90625 C 13.863281 -8.894531 14.140625 -7.804688 14.140625 -6.640625 C 14.140625 -6.472656 14.132812 -6.3125 14.125 -6.15625 C 14.113281 -6 14.097656 -5.878906 14.078125 -5.796875 L 3.234375 -5.796875 C 3.296875 -4.941406 3.53125 -4.179688 3.9375 -3.515625 C 4.351562 -2.859375 4.882812 -2.34375 5.53125 -1.96875 C 6.1875 -1.59375 6.890625 -1.40625 7.640625 -1.40625 C 8.441406 -1.40625 9.195312 -1.601562 9.90625 -2 C 10.625 -2.40625 11.113281 -2.929688 11.375 -3.578125 L 13.28125 -3.0625 C 13 -2.425781 12.578125 -1.851562 12.015625 -1.34375 C 11.453125 -0.84375 10.789062 -0.453125 10.03125 -0.171875 C 9.269531 0.109375 8.445312 0.25 7.5625 0.25 Z M 3.15625 -7.3125 L 12.078125 -7.3125 C 12.015625 -8.164062 11.773438 -8.914062 11.359375 -9.5625 C 10.941406 -10.21875 10.40625 -10.726562 9.75 -11.09375 C 9.09375 -11.46875 8.375 -11.65625 7.59375 -11.65625 C 6.820312 -11.65625 6.109375 -11.46875 5.453125 -11.09375 C 4.804688 -10.726562 4.28125 -10.21875 3.875 -9.5625 C 3.46875 -8.914062 3.226562 -8.164062 3.15625 -7.3125 Z M 3.15625 -7.3125 "/></g></g></g><g fill="#000000" fill-opacity="1"><g transform="translate(194.556976, 272.469919)"><g><path d="M 0.921875 -6.515625 C 0.921875 -7.753906 1.175781 -8.882812 1.6875 -9.90625 C 2.195312 -10.9375 2.898438 -11.757812 3.796875 -12.375 C 4.691406 -13 5.710938 -13.3125 6.859375 -13.3125 C 7.921875 -13.3125 8.867188 -13.035156 9.703125 -12.484375 C 10.535156 -11.929688 11.1875 -11.257812 11.65625 -10.46875 L 11.65625 -18.296875 L 13.859375 -18.296875 L 13.859375 -2.5 C 13.859375 -2.238281 13.910156 -2.046875 14.015625 -1.921875 C 14.128906 -1.796875 14.3125 -1.722656 14.5625 -1.703125 L 14.5625 0 C 14.144531 0.0625 13.816406 0.09375 13.578125 0.09375 C 13.148438 0.09375 12.769531 -0.0507812 12.4375 -0.34375 C 12.113281 -0.644531 11.953125 -0.984375 11.953125 -1.359375 L 11.953125 -2.453125 C 11.429688 -1.617188 10.738281 -0.957031 9.875 -0.46875 C 9.007812 0.0078125 8.109375 0.25 7.171875 0.25 C 6.265625 0.25 5.429688 0.0703125 4.671875 -0.28125 C 3.910156 -0.644531 3.25 -1.144531 2.6875 -1.78125 C 2.132812 -2.414062 1.703125 -3.132812 1.390625 -3.9375 C 1.078125 -4.75 0.921875 -5.609375 0.921875 -6.515625 Z M 11.65625 -4.59375 L 11.65625 -8.34375 C 11.457031 -8.914062 11.128906 -9.429688 10.671875 -9.890625 C 10.222656 -10.347656 9.71875 -10.710938 9.15625 -10.984375 C 8.601562 -11.265625 8.050781 -11.40625 7.5 -11.40625 C 6.84375 -11.40625 6.25 -11.265625 5.71875 -10.984375 C 5.195312 -10.710938 4.75 -10.347656 4.375 -9.890625 C 4 -9.429688 3.707031 -8.90625 3.5 -8.3125 C 3.300781 -7.726562 3.203125 -7.117188 3.203125 -6.484375 C 3.203125 -5.835938 3.316406 -5.222656 3.546875 -4.640625 C 3.773438 -4.054688 4.09375 -3.535156 4.5 -3.078125 C 4.90625 -2.628906 5.378906 -2.28125 5.921875 -2.03125 C 6.460938 -1.78125 7.050781 -1.65625 7.6875 -1.65625 C 8.09375 -1.65625 8.507812 -1.726562 8.9375 -1.875 C 9.363281 -2.03125 9.769531 -2.238281 10.15625 -2.5 C 10.539062 -2.769531 10.863281 -3.082031 11.125 -3.4375 C 11.394531 -3.800781 11.570312 -4.1875 11.65625 -4.59375 Z M 11.65625 -4.59375 "/></g></g></g><g fill="#000000" fill-opacity="1"><g transform="translate(210.32018, 272.469919)"><g><path d="M 1.53125 0 L 1.53125 -17.796875 L 8.375 -17.796875 C 10.34375 -17.796875 11.988281 -17.394531 13.3125 -16.59375 C 14.644531 -15.800781 15.648438 -14.734375 16.328125 -13.390625 C 17.003906 -12.046875 17.34375 -10.554688 17.34375 -8.921875 C 17.34375 -7.117188 16.96875 -5.546875 16.21875 -4.203125 C 15.476562 -2.867188 14.4375 -1.832031 13.09375 -1.09375 C 11.75 -0.363281 10.175781 0 8.375 0 Z M 12.375 -8.921875 C 12.375 -9.835938 12.210938 -10.640625 11.890625 -11.328125 C 11.578125 -12.023438 11.117188 -12.566406 10.515625 -12.953125 C 9.921875 -13.335938 9.207031 -13.53125 8.375 -13.53125 L 6.421875 -13.53125 L 6.421875 -4.265625 L 8.375 -4.265625 C 9.226562 -4.265625 9.945312 -4.460938 10.53125 -4.859375 C 11.125 -5.265625 11.578125 -5.820312 11.890625 -6.53125 C 12.210938 -7.238281 12.375 -8.035156 12.375 -8.921875 Z M 12.375 -8.921875 "/></g></g></g><g fill="#000000" fill-opacity="1"><g transform="translate(228.25966, 272.469919)"><g><path d="M 7.6875 0.25 C 6.519531 0.25 5.484375 0.0664062 4.578125 -0.296875 C 3.679688 -0.671875 2.925781 -1.175781 2.3125 -1.8125 C 1.707031 -2.457031 1.25 -3.1875 0.9375 -4 C 0.625 -4.820312 0.46875 -5.6875 0.46875 -6.59375 C 0.46875 -7.488281 0.625 -8.347656 0.9375 -9.171875 C 1.25 -10.003906 1.707031 -10.738281 2.3125 -11.375 C 2.925781 -12.007812 3.679688 -12.507812 4.578125 -12.875 C 5.484375 -13.25 6.519531 -13.4375 7.6875 -13.4375 C 8.875 -13.4375 9.914062 -13.25 10.8125 -12.875 C 11.707031 -12.507812 12.457031 -12.007812 13.0625 -11.375 C 13.675781 -10.738281 14.132812 -10.003906 14.4375 -9.171875 C 14.75 -8.347656 14.90625 -7.488281 14.90625 -6.59375 C 14.90625 -5.6875 14.75 -4.820312 14.4375 -4 C 14.132812 -3.1875 13.675781 -2.457031 13.0625 -1.8125 C 12.457031 -1.175781 11.707031 -0.671875 10.8125 -0.296875 C 9.914062 0.0664062 8.875 0.25 7.6875 0.25 Z M 5.359375 -6.59375 C 5.359375 -6.007812 5.457031 -5.503906 5.65625 -5.078125 C 5.863281 -4.648438 6.140625 -4.320312 6.484375 -4.09375 C 6.835938 -3.875 7.238281 -3.765625 7.6875 -3.765625 C 8.144531 -3.765625 8.546875 -3.875 8.890625 -4.09375 C 9.242188 -4.320312 9.519531 -4.648438 9.71875 -5.078125 C 9.925781 -5.503906 10.03125 -6.007812 10.03125 -6.59375 C 10.03125 -7.175781 9.925781 -7.679688 9.71875 -8.109375 C 9.519531 -8.535156 9.242188 -8.859375 8.890625 -9.078125 C 8.546875 -9.304688 8.144531 -9.421875 7.6875 -9.421875 C 7.238281 -9.421875 6.835938 -9.304688 6.484375 -9.078125 C 6.140625 -8.859375 5.863281 -8.535156 5.65625 -8.109375 C 5.457031 -7.679688 5.359375 -7.175781 5.359375 -6.59375 Z M 5.359375 -6.59375 "/></g></g></g><g fill="#000000" fill-opacity="1"><g transform="translate(243.643521, 272.469919)"><g><path d="M 10.453125 -0.734375 C 10.015625 -0.546875 9.550781 -0.367188 9.0625 -0.203125 C 8.570312 -0.046875 8.070312 0.0703125 7.5625 0.15625 C 7.050781 0.238281 6.550781 0.28125 6.0625 0.28125 C 5.34375 0.28125 4.679688 0.160156 4.078125 -0.078125 C 3.484375 -0.328125 3.003906 -0.726562 2.640625 -1.28125 C 2.285156 -1.84375 2.109375 -2.601562 2.109375 -3.5625 L 2.109375 -9.59375 L 0.46875 -9.59375 L 0.46875 -13.1875 L 2.109375 -13.1875 L 2.109375 -17.3125 L 6.859375 -17.3125 L 6.859375 -13.1875 L 9.453125 -13.1875 L 9.453125 -9.59375 L 6.859375 -9.59375 L 6.859375 -5.234375 C 6.859375 -4.804688 6.953125 -4.503906 7.140625 -4.328125 C 7.328125 -4.148438 7.578125 -4.0625 7.890625 -4.0625 C 8.128906 -4.0625 8.394531 -4.101562 8.6875 -4.1875 C 8.988281 -4.269531 9.289062 -4.367188 9.59375 -4.484375 Z M 10.453125 -0.734375 "/></g></g></g></svg>